<svg width="76" height="48" viewBox="0 0 76 48" fill="none" xmlns="http://www.w3.org/2000/svg">
<path d="M0 25.5827C0.0492957 37.9032 10.0232 48 22.2758 48C34.5585 48 44.5508 37.9439 44.5508 25.5827V22.418C44.5508 17.3281 48.6659 13.1868 53.7235 13.1868C58.7818 13.1868 62.8962 17.3281 62.8962 22.418C62.8962 23.8745 64.0697 25.0555 65.5169 25.0555H73.3792C74.8272 25.0555 76 23.8745 76 22.418C76 10.0569 66.0077 0 53.7242 0C41.4415 0 31.4485 10.0569 31.4485 22.418V25.5827C31.4485 30.6734 27.3334 34.8132 22.2765 34.8132C17.2189 34.8132 13.1038 30.6734 13.1038 25.5827C13.1038 24.1262 11.9303 22.9452 10.4831 22.9452H2.62077C1.17353 22.946 0 24.1262 0 25.5827Z" fill="#11181C"/>
</svg>
